<svg xmlns="http://www.w3.org/2000/svg" width="32" height="32" viewBox="0 0 32 32" fill="none">
  <g transform="translate(2 2) scale(1.16)" stroke-linecap="round" stroke-linejoin="round">
    <path d="M21 21H8a2 2 0 0 1-1.42-.587l-3.994-3.999a2 2 0 0 1 0-2.828l10-10a2 2 0 0 1 2.829 0l5.999 6a2 2 0 0 1 0 2.828L12.834 21" stroke="#F8F8F4" stroke-width="5"/>
    <path d="m5.082 11.09 8.828 8.828" stroke="#F8F8F4" stroke-width="5"/>
    <path d="M21 21H8a2 2 0 0 1-1.42-.587l-3.994-3.999a2 2 0 0 1 0-2.828l10-10a2 2 0 0 1 2.829 0l5.999 6a2 2 0 0 1 0 2.828L12.834 21" stroke="#17191B" stroke-width="2.35"/>
    <path d="m5.082 11.09 8.828 8.828" stroke="#AFE94D" stroke-width="2.35"/>
  </g>
</svg>
